HIERARCHY
ROOT pelvis
{
  OFFSET 0 100 0
  CHANNELS 6 Xposition Yposition Zposition Zrotation Xrotation Yrotation
  JOINT pelvis_right_femur
  {
    OFFSET -10.78128 -3.44521 -0.5502486
    CHANNELS 3 Zrotation Xrotation Yrotation
    JOINT right_femur_tibia
    {
      OFFSET -0.8047443 -44.0398 -0.1307829
      CHANNELS 3 Zrotation Xrotation Yrotation
      JOINT right_tibia_foot
      {
        OFFSET 3.006224 -47.83518 -5
        CHANNELS 3 Zrotation Xrotation Yrotation
        End Site
        {
          OFFSET 0 -5 15
        }
      }
    }
  }
  JOINT pelvis_left_femur
  {
    OFFSET 10.78128 -3.44521 -0.5502486
    CHANNELS 3 Zrotation Xrotation Yrotation
    JOINT left_femur_tibia
    {
      OFFSET 0.8047443 -44.0398 -0.1307829
      CHANNELS 3 Zrotation Xrotation Yrotation
      JOINT left_tibia_foot
      {
        OFFSET -4.370144 -48.10324 -4.275266
        CHANNELS 3 Zrotation Xrotation Yrotation
        End Site
        {
          OFFSET 0 -5 15
        }
      }
    }
  }
  JOINT pelvis_spine1
  {
    OFFSET 0 6.468898 -3.129235
    CHANNELS 3 Zrotation Xrotation Yrotation
    JOINT spine1
    {
      OFFSET 0 23.15396 4.99043
      CHANNELS 3 Zrotation Xrotation Yrotation
      JOINT spine2
      {
        OFFSET 0 20.79997 -5.064912
        CHANNELS 3 Zrotation Xrotation Yrotation
        JOINT neck
        {
          OFFSET 0 14.38658 9.616178
          CHANNELS 3 Zrotation Xrotation Yrotation
          End Site
          {
            OFFSET 0 20 0
          }
        }
      }
      JOINT right_manubrium
      {
        OFFSET -5.722621 16.35077 3.967754
        CHANNELS 3 Zrotation Xrotation Yrotation
        JOINT right_clavicle
        {
          OFFSET -13.16364 1.694482 -4.693211
          CHANNELS 3 Zrotation Xrotation Yrotation
          JOINT right_humerus
          {
            OFFSET -28.5034 -0.3100689 -2.792744
            CHANNELS 3 Zrotation Xrotation Yrotation
            JOINT right_radius
            {
              OFFSET -25.15693 0.02248979 -1.271978
              CHANNELS 3 Zrotation Xrotation Yrotation
              End Site
              {
                OFFSET -15 0 0
              }
            }
          }
        }
      }
      JOINT left_manubrium
      {
        OFFSET 5.722621 16.35077 3.967754
        CHANNELS 3 Zrotation Xrotation Yrotation
        JOINT left_clavicle
        {
          OFFSET 13.16364 1.694482 -4.693211
          CHANNELS 3 Zrotation Xrotation Yrotation
          JOINT left_humerus
          {
            OFFSET 29.39168 -1.063119 -2.237045
            CHANNELS 3 Zrotation Xrotation Yrotation
            JOINT left_radius
            {
              OFFSET 24.59957 -0.9528479 0.9047498
              CHANNELS 3 Zrotation Xrotation Yrotation
              End Site
              {
                OFFSET 15 -0 -0
              }
            }
          }
        }
      }
    }
  }
}
MOTION
Frames: 13
Frame Time: 0.0416666666667
88.84794 108.8372 3100.595 -0.7670874 -4.120593 -5.246814 5.018545 -20.29418 -0.8923571 -0 6.854456 -0 -8.562144 7.432023 -2.450668 -4.33334 15.49959 -7.308637 -0 45.01755 -0 -4.279306 -11.51123 12.21906 0.7722485 -2.487856 5.20459 0.8406353 14.7221 -7.30217 1.396004 21.77926 3.936198 0.9769107 -21.74619 6.075484 -5.014847 -24.67464 11.69196 96.52074 16.67941 -19.31199 -0 0 13.05939 -21.54482 10.34869 10.90626 3.306266 -25.77497 -8.390339 -87.88328 14.93171 21.83958 0 0 -23.34741 8.924383 14.03524 2.865305
87.68741 110.1737 3107.809 -0.9994317 -5.873458 -5.875547 5.863307 -14.78724 0.1482458 -0 10.60938 -0 -9.550665 5.958105 -2.719132 -3.81837 11.61051 -7.073612 -0 53.8873 -0 -4.156627 -8.481306 13.11142 0.8840109 -2.547834 5.428715 0.8458229 14.83927 -7.239578 1.431615 21.64241 3.710628 0.6874635 -21.78971 6.060091 -5.244892 -25.31494 11.67327 96.44658 16.34823 -18.7199 -0 0 13.96515 -21.55541 10.63194 11.30881 2.988023 -25.46054 -8.313243 -88.45546 15.0548 23.29666 0 0 -22.52941 8.267589 13.94921 3.884854
86.54457 111.9076 3114.533 -1.023986 -6.99699 -6.637436 6.192461 -9.36573 1.194019 -0 12.86138 -0 -9.422239 3.935059 -2.775386 -3.252603 5.881611 -6.661404 -0 59.85308 -0 -4.320241 -6.350588 14.1195 1.03874 -2.635607 5.774984 0.8456385 15.02927 -7.157192 1.457457 21.41859 3.392595 0.3198951 -21.79912 5.981468 -5.515321 -26.24881 11.66566 96.28105 15.95308 -17.86647 -0 0 15.36081 -21.5826 11.03406 11.85925 2.550022 -25.03642 -8.224672 -89.29691 15.08565 25.42838 0 0 -21.3018 7.401601 13.78534 5.214839
85.46714 113.5857 3120.745 -0.9625056 -7.683543 -7.490158 6.167701 -4.364797 2.083428 -0 13.39806 -0 -8.555722 1.082856 -2.741305 -2.522643 -0.7411622 -6.081707 -0 61.45102 -0 -4.487327 -5.286686 15.28479 1.226509 -2.742638 6.232759 0.8344571 15.27867 -7.048557 1.471036 21.12085 2.998983 -0.1033534 -21.7672 5.841967 -5.806778 -27.43439 11.66632 96.01617 15.52275 -16.7667 -0 0 17.20251 -21.63484 11.53175 12.53837 2.015441 -24.5079 -8.119681 -90.3947 14.99363 28.14931 0 0 -19.67759 6.368868 13.53866 6.789835
84.48963 114.824 3126.528 -0.9966946 -8.244977 -8.418696 6.044799 0.1188881 2.613604 -0 12.72684 -0 -7.644918 -2.643235 -2.757548 -1.55437 -7.046958 -5.380967 -0 58.35563 -0 -4.349467 -5.071131 16.54753 1.42883 -2.854502 6.774367 0.8050881 15.56253 -6.90796 1.469275 20.77461 2.562516 -0.5402932 -21.68293 5.64821 -6.083301 -28.78381 11.67344 95.64299 15.11037 -15.46657 -0 0 19.38374 -21.71991 12.08349 13.30217 1.428959 -23.89541 -7.995975 -91.69319 14.74864 31.27229 0 0 -17.71095 5.252109 13.21881 8.480719
83.63147 115.4366 3132.041 -1.18754 -8.721669 -9.393317 5.943318 4.174209 2.707941 -0 11.60543 -0 -7.103743 -6.793254 -2.810799 -0.4172237 -12.36662 -4.632264 -0 51.64252 -0 -3.874661 -5.280872 17.70649 1.621271 -2.952687 7.357578 0.7498261 15.84623 -6.729919 1.450919 20.41583 2.126581 -0.9377163 -21.53489 5.413127 -6.299497 -30.17538 11.68633 95.15171 14.78302 -14.03226 -0 0 21.74784 -21.8425 12.63681 14.09017 0.8489842 -23.22831 -7.853256 -93.1001 14.34114 34.53729 0 0 -15.48548 4.155772 12.85553 10.12209
82.89349 115.4336 3137.479 -1.421087 -8.890304 -10.35187 5.784375 7.914885 2.480077 -0 10.55988 -0 -6.829339 -10.61992 -2.739985 0.6983925 -16.69015 -3.937011 -0 43.07492 -0 -3.301906 -5.577402 18.55009 1.779919 -3.020103 7.933087 0.6639783 16.09325 -6.512361 1.418569 20.08385 1.734777 -1.247647 -21.3204 5.156847 -6.417021 -31.47989 11.70471 94.54287 14.59644 -12.54243 -0 0 24.11168 -22.00051 13.13921 14.83876 0.3329803 -22.54057 -7.693568 -94.50409 13.79881 37.66517 0 0 -13.11333 3.177531 12.49352 11.55834
82.25929 114.9382 3143.027 -1.539677 -8.597642 -11.22283 5.433454 11.37309 2.140194 -0 9.931214 -0 -6.500652 -13.50794 -2.41406 1.579223 -20.14325 -3.424079 -0 34.23616 -0 -2.886492 -5.812494 19.01004 1.888094 -3.04683 8.453274 0.5496691 16.27483 -6.261633 1.378551 19.81227 1.421004 -1.441775 -21.05269 4.904537 -6.419468 -32.58732 11.72759 93.84109 14.57351 -11.08597 -0 0 26.29175 -22.1829 13.54871 15.49253 -0.07587179 -21.87022 -7.522861 -95.79561 13.18662 40.41006 0 0 -10.73898 2.387455 12.17927 12.68011
81.70336 114.1221 3148.823 -1.467407 -7.928695 -11.95859 4.827088 14.48614 1.867646 -0 10.11298 -0 -5.935087 -15.09308 -1.841073 2.047787 -22.67099 -3.232447 -0 26.25175 -0 -2.731655 -5.962386 19.17318 1.939531 -3.032052 8.880447 0.4161377 16.37647 -5.993542 1.338281 19.62181 1.204175 -1.514994 -20.75717 4.680076 -6.314246 -33.42513 11.7527 93.09392 14.70403 -9.753 -0 0 28.13498 -22.37233 13.84184 16.01172 -0.3549286 -21.25662 -7.351542 -96.88644 12.58602 42.59886 0 0 -8.520617 1.822166 11.94831 13.4353
81.19812 113.181 3154.943 -1.23331 -7.141552 -12.54343 4.003775 17.11857 1.733709 -0 11.58372 -0 -5.222571 -15.1414 -1.140826 1.988092 -24.08658 -3.469509 -0 19.89867 -0 -2.775247 -6.047002 19.19953 1.937341 -2.982036 9.192389 0.276423 16.39889 -5.729497 1.30295 19.51755 1.088197 -1.478862 -20.46009 4.49893 -6.122761 -33.96417 11.77766 92.35617 14.96049 -8.619438 -0 0 29.54529 -22.55075 14.01597 16.37495 -0.5008353 -20.73481 -7.193067 -97.72159 12.06562 44.14839 0 0 -6.594711 1.490335 11.81871 13.81893
80.71816 112.3263 3161.408 -0.9328244 -6.539928 -12.97751 3.080228 19.08086 1.693302 -0 14.76909 -0 -4.657693 -13.50962 -0.4681698 1.374405 -24.20949 -4.163587 -0 15.68199 -0 -2.849715 -6.10028 19.24059 1.890542 -2.906583 9.382665 0.1433435 16.35423 -5.491096 1.274008 19.49149 1.065833 -1.352245 -20.17997 4.365498 -5.869095 -34.21193 11.80129 91.67477 15.31329 -7.736657 -0 0 30.48961 -22.70383 14.08486 16.57704 -0.5236042 -20.33095 -7.061315 -98.27885 11.66339 45.05442 0 0 -5.052225 1.382468 11.79185 13.85495
80.24477 111.7707 3168.172 -0.6701631 -6.356036 -13.25823 2.196172 20.14211 1.639082 -0 19.85834 -0 -4.547553 -10.23595 0.06629122 0.2878905 -22.97067 -5.241057 -0 13.78614 -0 -2.774296 -6.179441 19.38266 1.810311 -2.816042 9.456146 0.02711366 16.2601 -5.296539 1.249845 19.52832 1.124134 -1.154425 -19.9262 4.275658 -5.573799 -34.19776 11.82393 91.08344 15.73752 -7.132709 -0 0 30.98158 -22.82222 14.07011 16.62321 -0.4394918 -20.06189 -6.968415 -98.55884 11.38697 45.36108 0 0 -3.939946 1.480549 11.85764 13.57946
79.77204 111.6973 3175.123 -0.5072454 -6.667238 -13.37214 1.449617 20.04746 1.480731 -0 26.64045 -0 -5.018369 -5.648065 0.4379456 -1.103667 -20.47092 -6.545818 -0 13.99423 -0 -2.444022 -6.382511 19.61978 1.70738 -2.719748 9.422664 -0.06489134 16.13459 -5.160013 1.227475 19.61136 1.249155 -0.9021143 -19.70278 4.22161 -5.253342 -33.95734 11.84675 90.60687 16.21255 -6.82264 -0 0 31.05468 -22.90048 13.99286 16.52259 -0.2653577 -19.93855 -6.924002 -98.57183 11.22551 45.1269 0 0 -3.280211 1.765326 12.00033 13.02919
